<?xml version="1.0" encoding="UTF-8"?>
<svg xmlns="http://www.w3.org/2000/svg" version="1.1" viewBox="0 0 32 32">
  <defs>
    <style>
      .cls-1 {
        fill: #1d1d1b;
      }

      .cls-2 {
        fill: #574279;
      }

      .cls-3 {
        fill: #009fe3;
      }

      .cls-4 {
        fill: #d0ebfc;
      }

      .cls-5 {
        fill: #89d2f6;
      }
    </style>
  </defs>
  <!-- Generator: Adobe Illustrator 28.7.2, SVG Export Plug-In . SVG Version: 1.2.0 Build 154)  -->
  <g>
    <g id="Ebene_1">
      <path class="cls-1" d="M3.31,2.7c-.21,2.71.02,5.4.16,8.11s.06,5.45.01,8.18c-.03,1.8-.81,5.05,1.49,5.75,1.11.34,2.14-.11,3.02-.78s2.06-1.88,3.25-1.94l-.88-.37c.31.28.48.94.65,1.31.26.58.51,1.16.74,1.74.44,1.08.78,2.2,1.21,3.29.77,1.95,2.67,2.08,4.25.88,1.67-1.27.99-3.19.29-4.86-.44-1.04-1.1-1.97-1.49-3.03-.35-.96-.51-1.94-1.03-2.83l-.2,1.51c1.74-1.72,4.42-2.2,5.8-4.33,1.2-1.86-1.2-3.37-2.53-4.31-1.23-.86-2.38-1.68-3.51-2.66-.47-.41-.95-.81-1.52-1.07-.52-.23-.81-.26-1.22-.65-.92-.89-1.82-1.81-2.83-2.62-1.07-.86-2.25-1.47-3.21-2.46-1.12-1.16-2.89.61-1.77,1.77,1.28,1.32,2.93,2.1,4.28,3.35,1.12,1.04,1.9,2.22,3.35,2.78.86.33,1.41.94,2.11,1.54.74.63,1.55,1.16,2.35,1.7.36.24.72.47,1.06.72,0,0,1.11.92.74.53.13.14.23.33.36.48.23.26.56.87.31.16l.13-.96c-.56,1.06-1.58,1.59-2.59,2.14-1.11.6-2.16,1.23-3.07,2.12-.39.39-.47,1.04-.2,1.51.4.69.51,1.49.77,2.24s.67,1.5,1.06,2.22.74,1.49.96,2.31c.04.15.11,1,.22.68.1-.26-.01-.21-.35.16-.25.16-.52.2-.8.12l.88.37c-.46-.36-.58-1.27-.77-1.8-.26-.7-.52-1.4-.81-2.09-.46-1.12-.89-2.81-1.78-3.67s-2.23-.21-3.19.27c-.67.33-1.27.76-1.86,1.21-.26.21-.52.42-.78.63-.5.39-.43.52-.46-.06-.15-3.08.19-6.2.12-9.29-.08-3.34-.49-6.67-.24-10.02.12-1.6-2.38-1.6-2.5,0h0Z"/>
      <path class="cls-3" d="M8.65,12.42c-.12,1.4-.06,2.8.13,4.19.09.7,1.26.53,1.23-.17-.1-1.87-.42-3.73-1.02-5.51-.25-.76-1.4-.45-1.21.33.5,2.02.89,4.06,1.18,6.12l1.21-.33c-.67-1.7-1.33-3.4-1.79-5.17l-1.14.48c.79,1.85,1.37,3.78,1.79,5.74l1.21-.33c-.73-1.9-1.47-3.84-1.73-5.87l-.79.6.08.03-.28-.16.03.02c.45.66,1.53.04,1.08-.63-.15-.23-.32-.37-.58-.45-.35-.11-.84.2-.79.6.27,2.16.99,4.18,1.77,6.21.28.74,1.38.47,1.21-.33-.45-2.07-1.09-4.09-1.92-6.04-.28-.66-1.32-.18-1.14.48.47,1.77,1.13,3.47,1.79,5.17.3.76,1.31.46,1.21-.33-.28-2.06-.67-4.1-1.18-6.12l-1.21.33c.56,1.68.88,3.41.97,5.18l1.23-.17c-.17-1.28-.19-2.57-.08-3.86.03-.34-.31-.62-.62-.62-.36,0-.6.29-.62.62h0Z"/>
      <path class="cls-3" d="M4.69,3.75c.11,3.32.2,6.64.27,9.97.03,1.54.08,3.09.09,4.63,0,1.25-.46,2.84-.03,4.03.25.69.85,1.22,1.61.93.57-.22,1.07-.83,1.54-1.19.55-.41,1.14-.77,1.75-1.08.31-.16.81-.53,1.13-.49.37.05.14-.04.41.28.42.51.67,1.49.93,2.09.72,1.64,1.41,3.29,2.08,4.94.3.74,1.51.41,1.21-.33-.54-1.33-1.09-2.66-1.65-3.98-.51-1.19-.95-2.89-1.79-3.88-.6-.7-1.31-.42-2.06-.11-1.18.49-2.26,1.17-3.25,1.97-.4.33-.58.79-.79-.19-.07-.34.08-.79.11-1.13.06-.69.07-1.38.06-2.07-.02-1.55-.06-3.11-.09-4.66-.07-3.24-.16-6.49-.27-9.73-.03-.8-1.28-.81-1.25,0h0Z"/>
      <path class="cls-3" d="M4.89,4.13c2,2.04,4.22,3.81,6.42,5.62,1.09.9,2.18,1.8,3.27,2.69.52.42,1.04.84,1.57,1.24s1.07.8,1.76.74c.5-.05.87-.67.44-1.07-1.13-1.05-2.46-2-3.73-2.88-.61-.42-1.16-.8-1.69-1.33-.27-.26-.5-.37-.85-.48-.42-.13-.68-.39-.98-.69-.57-.57-1.45.31-.88.88.24.24.48.48.76.67.31.21.68.24.98.43s.51.5.78.71c.29.23.59.43.9.63,1.32.87,2.69,1.84,3.84,2.92l.44-1.07c-.57.05-1.21-.62-1.64-.96-.51-.4-1-.81-1.5-1.22-1.03-.85-2.07-1.7-3.1-2.55-2.03-1.67-4.05-3.31-5.9-5.2-.56-.58-1.45.31-.88.88h0Z"/>
      <path class="cls-3" d="M17.8,13.19c-.41.1-.74.3-1.07.56-.24.19-.22.6-.05.82.21.26.51.29.81.16.09-.04.19-.06.29-.07l-.17-1.23c-.33.1-.59.3-.79.58-.09.13-.16.26-.22.4,0,.02-.07.14-.05.12.01-.02.07-.05,0-.01-.57.31-1.05.74-1.54,1.15-.23.19-.48.38-.68.61-.18.21-.29.48-.46.68-.19.22-.46.37-.64.6-.22.27-.4.55-.57.85-.41.69.67,1.32,1.08.63.13-.22.26-.46.43-.66s.41-.34.59-.53c.2-.21.3-.48.48-.7.16-.2.39-.36.59-.52.42-.35.82-.72,1.31-.99.31-.17.48-.39.61-.71.04-.09.07-.14.11-.21.03-.05.04-.05.1-.07.65-.19.56-1.28-.17-1.23-.33.02-.62.1-.92.24l.76.98c.16-.12.33-.19.51-.24.78-.2.45-1.41-.33-1.21h0Z"/>
      <path class="cls-3" d="M17.4,13.81c0-.07.03-.13.08-.19-.05.05-.05.05,0,0-.06.03-.11.06-.17.09-.18.1-.32.24-.42.41-.05.08-.09.19-.11.28-.04.11-.01.08.07-.08.07-.05.07-.06.01-.03-.08.02-.18.09-.26.12-.09.04-.17.08-.26.12l.86.86.12-.17-1.16-.32c0-.1-.03.05,0,0,.04-.07-.08.12,0-.01-.03.04-.05.05,0,0-.04.03-.08.05-.12.07-.19.1-.38.21-.53.37s-.26.37-.36.57c-.05.1.04-.02,0,.02-.02.02-.04.05-.07.07-.03.03-.06.05-.09.08-.08.08.06-.03,0,0-.25.14-.51.29-.74.45-.37.26-.6.56-.77.98-.13.3.14.7.44.77.36.08.63-.11.77-.44-.03.08,0,.02.02-.02.02-.04.05-.07.07-.11-.03.04-.06.06,0,.01.03-.03.06-.06.08-.08.05-.05.06-.05,0,0,.03-.02.06-.05.1-.07.06-.04.12-.08.18-.11.3-.17.6-.34.85-.59.14-.14.26-.31.36-.49.02-.04.04-.07.06-.11,0,0,.08-.13.05-.09-.04.04.09-.06,0,0,.04-.03.09-.05.13-.07.49-.26.81-.64.84-1.2.02-.26-.21-.55-.46-.6-.29-.07-.54.05-.71.29l-.12.17c-.15.21-.09.58.1.76.22.2.5.22.76.1.19-.09.41-.17.59-.29.13-.08.23-.19.3-.32.04-.07.07-.15.09-.22,0-.02.07-.13.02-.09,0,0-.07.14-.09.11,0,0,.08-.04.08-.05.11-.06.2-.11.3-.19.23-.19.34-.47.36-.77.02-.33-.3-.64-.62-.62-.36.02-.6.27-.62.62h0Z"/>
      <path class="cls-3" d="M13.93,18.93c.64-.9,1.71-1.48,2.54-2.19s1.56-1.6,2.12-2.58c.18-.31.05-.65-.22-.86-1.19-.86-2.66.82-3.3,1.68-.42.56-.56,1.2-1.05,1.72-.2.22-.4.44-.55.69-.18.29-.36.48-.56.73-.42.53-.21,1.22.03,1.77.33.76.67,1.51,1,2.26s.68,1.54.96,2.33.72,1.48.95,2.24,1.44.44,1.21-.33c-.18-.59-.52-1.11-.75-1.68s-.42-1.18-.67-1.76c-.5-1.2-1.07-2.38-1.57-3.58-.05-.12-.15-.27-.13-.4.03-.16.08-.13.18-.26.14-.2.27-.39.39-.6.26-.45.69-.76.97-1.19s.4-.96.75-1.38c.18-.22,1.14-1.43,1.52-1.15l-.22-.86c-.58,1.03-1.34,1.85-2.24,2.6-.84.69-1.78,1.27-2.41,2.18-.46.66.62,1.28,1.08.63h0Z"/>
      <path class="cls-3" d="M15.43,28.43c.52-.38,1.04-.77,1.55-1.16.12-.09.18-.3.18-.44,0-.15-.07-.34-.18-.44s-.28-.19-.44-.18l-.17.02c-.11.03-.2.08-.28.16-.08.06-.16.13-.24.19l.13-.1c-.39.3-.78.59-1.18.88-.14.1-.24.21-.29.37-.04.15-.02.35.06.48s.21.25.37.29.35.03.48-.06h0Z"/>
      <path class="cls-3" d="M5.97,5.41c.8,0,.81-1.25,0-1.25s-.81,1.25,0,1.25h0Z"/>
      <path class="cls-3" d="M5.31,5.05c-.07,1.07.09,2.12.28,3.18s.25,1.98.1,3.09c-.29,2.15.04,4.32.52,6.42.18.8,1.32.44,1.21-.33-.26-1.73-.29-3.47-.43-5.21-.13-1.59-.53-3.15-.58-4.74l-1.23.17c.69,1.71,1.45,3.39,2.27,5.04.36.72,1.43.09,1.08-.63-.72-1.49-.93-3.16-1.15-4.78-.1-.69-1.28-.53-1.23.17.12,1.47.39,2.9.87,4.3l1.21-.33c-.52-1.43-.52-2.99-1.11-4.4-.3-.73-1.51-.42-1.21.33l1.31,3.21c.3.73,1.5.43,1.21-.33-.6-1.54-1.46-3.15-1.57-4.8l-1.16.32c1.04,2.28,2.08,4.57,3.13,6.85l.98-.76c-.89-.92-1.5-2.05-2.11-3.17-.33-.61-1.42-.19-1.14.48.52,1.27,1.09,2.52,1.73,3.74l.98-.76-1.13-1.18c-.29-.31-.98-.2-1.04.28-.1.71-.1,1.37,0,2.08l1.21-.33c-.19-.99-.43-1.96-.73-2.93-.19-.61-1.01-.58-1.21,0-.25.75-.03,1.63.1,2.4.17.94.4,1.87.64,2.8l1.21-.33c-.32-.93-.56-1.87-.72-2.84-.12-.72-1.21-.51-1.23.17-.04,1.3.05,2.58.27,3.86.11.69,1.29.54,1.23-.17s-.15-1.38-.27-2.07-1.01-.51-1.21,0c-.51,1.31-.87,2.65-1.11,4.03-.14.78,1.04,1.13,1.21.33l.11-.32-1.16-.32c.02,1.39-1.11,3.99.3,4.99.27.19.7.05.86-.22.77-1.4-.02-3.17.76-4.61l-1.14-.15c.21,1.28-.53,2.51-.5,3.79.02.71.59,1.52,1.36,1.01.85-.55.41-2.2.38-3-.04-1.16-.09-2.99,1.03-3.72l-.92-.71c-.31,2.18-1.18,4.27-1.03,6.51.04.55.89.93,1.16.32,1.09-2.46,1.15-5.15,1.18-7.79,0-.68-1.11-.88-1.23-.17-.08.5-.34.9-.46,1.38s-.03.99-.02,1.45c.02.6.04,1.2.06,1.81.01.38.23,1.42-.08,1.74-.35.37-.16.87.28,1.04l.1.04c.2.08.47-.01.61-.16.45-.46.49-1.19.58-1.8.05-.37.08-.75.1-1.12.02-.4-.08-.91.16-1.25l-1.14-.15c.43,1.35.13,2.7-.19,4.04-.09.39.19.79.6.79.7,0,.9-.68,1.06-1.25.25-.92.33-1.89.76-2.75l-1.14-.15c.17.91-.55,2.02.36,2.67.23.17.56.08.76-.1.57-.51.31-1.37.56-2l-.44.44.13-.03-.61-.16c.3.28.52.43.87.62.42.23.6,1.03.79,1.51l1.14-.48c-.72-1.5-1.21-3.11-1.76-4.68-.25-.71-.52-1.42-.72-2.15s-.3-1.4-.68-2.04-1.27-.2-1.14.48c.26,1.32.58,2.63.98,3.91.18.59.39,1.17.6,1.75.2.55.53,1.2.56,1.79l.18-.44c-.26.28-1.02.23-1.39.45-.42.25-.73.63-.98,1.04-.33.55.32,1.15.86.86,1.64-.91,2.76-3.33,1.5-4.96-.34-.43-1.09-.06-1.07.44.03.72.12,1.43.27,2.14l1.21-.33c-.45-1.13-.84-2.28-1.18-3.45-.22-.77-1.43-.44-1.21.33.34,1.17.73,2.32,1.18,3.45.29.73,1.38.47,1.21-.33-.13-.6-.2-1.19-.23-1.81l-1.07.44c.74.96-.42,2.54-1.24,2.99l.86.86c.27-.45.54-.63,1.05-.75.34-.08.73-.12,1-.36.62-.55.11-1.52-.11-2.16-.72-2.04-1.36-4.07-1.78-6.19l-1.14.48c.4.69.48,1.56.72,2.31s.5,1.44.75,2.16c.52,1.48.99,2.98,1.68,4.39.3.63,1.41.18,1.14-.48-.25-.61-.43-1.5-.88-2-.17-.19-.37-.25-.6-.34-.25-.11-.39-.31-.63-.43-.42-.21-.87,0-1.05.4-.1.23-.07.46-.1.7-.02.2-.05.4-.11.59-.09.27-.1.32-.04.15l.76-.1-.12-.09.29.37c-.17-.7.18-1.48.04-2.21-.1-.52-.91-.61-1.14-.15-.27.54-.45,1.09-.58,1.67-.12.52-.13,1.5-.48,1.89l.44-.18h-.11c.2.26.4.53.6.79.37-1.55.69-3.14.19-4.7-.17-.54-.83-.59-1.14-.15-.36.52-.31,1.13-.33,1.73-.01.44-.05.88-.11,1.31-.03.2-.06.73-.2.88l.61-.16-.1-.04.28,1.04c.75-.79.46-2.14.43-3.12-.02-.69-.14-1.45-.07-2.14.05-.58.37-1.09.46-1.68l-1.23-.17c-.03,2.4-.02,4.93-1.01,7.16l1.16.32c-.14-2.12.69-4.1.99-6.17.07-.49-.41-1.03-.92-.71-.89.57-1.33,1.55-1.52,2.56-.12.63-.15,1.26-.14,1.9s.34,1.92.02,2.48l.37-.29-.19.07.48.06c-.07-.05.4-1.87.44-2.09.15-.69.21-1.34.09-2.04-.09-.54-.9-.59-1.14-.15-.33.61-.49,1.25-.56,1.93-.08.78.18,1.98-.2,2.68l.86-.22c-.28-.2.09-1.64.14-1.92.11-.66.2-1.31.19-1.99-.01-.61-.85-.86-1.16-.32-.13.23-.18.35-.24.62l1.21.33c.24-1.38.6-2.72,1.11-4.03h-1.21c.1.58.17,1.15.22,1.74l1.23-.17c-.19-1.17-.26-2.35-.22-3.53l-1.23.17c.17.97.4,1.91.72,2.84.26.75,1.4.46,1.21-.33-.18-.72-.37-1.44-.52-2.17s-.46-1.65-.22-2.36h-1.21c.3.96.54,1.94.73,2.93.15.8,1.31.44,1.21-.33-.07-.47-.07-.95,0-1.42l-1.04.28,1.13,1.18c.5.53,1.3-.14.98-.76-.59-1.12-1.12-2.27-1.6-3.44l-1.14.48c.66,1.21,1.34,2.42,2.3,3.42.52.54,1.26-.14.98-.76-1.04-2.28-2.08-4.57-3.13-6.85-.26-.56-1.2-.28-1.16.32.11,1.81.96,3.45,1.61,5.13l1.21-.33-1.31-3.21-1.21.33c.59,1.41.59,2.97,1.11,4.4.27.75,1.47.43,1.21-.33-.44-1.29-.72-2.61-.82-3.97l-1.23.17c.24,1.74.51,3.48,1.28,5.08l1.08-.63c-.77-1.55-1.49-3.13-2.14-4.74-.25-.6-1.25-.6-1.23.17.05,1.7.48,3.37.6,5.07s.19,3.49.45,5.22l1.21-.33c-.49-2.15-.75-4.27-.4-6.46.31-1.96-.57-3.9-.45-5.89.05-.8-1.2-.8-1.25,0h0Z"/>
      <path class="cls-5" d="M6.71,6.11c1.66,1.52,3.31,3.05,4.97,4.57.78.71,1.57,1.4,2.41,2.05.74.58,1.91,1.13,2.35,1.99l.1-.76c-1.1.91-2.16,1.86-3.19,2.86-.74.71-1.34,1.28-1.15,2.38.23,1.33.91,2.69,1.39,3.94s1.02,2.57,1.55,3.84c.31.74,1.39.1,1.08-.63-.88-2.1-1.71-4.22-2.47-6.36-.25-.71-.43-1.2.06-1.87.29-.4.77-.75,1.14-1.09.8-.75,1.63-1.48,2.48-2.18.22-.18.22-.53.1-.76-.39-.77-1.08-1.16-1.76-1.66-1.01-.73-1.96-1.53-2.89-2.36-1.77-1.6-3.52-3.23-5.28-4.85-.59-.54-1.48.34-.88.88h0Z"/>
      <path class="cls-5" d="M12.19,12.77c.09.87.24,1.73.48,2.57.09.31.45.54.77.44s.53-.43.44-.77c-.11-.38-.2-.77-.27-1.16-.04-.19-.07-.39-.1-.58,0-.05-.02-.11-.02-.16v.08s0-.06,0-.09c-.01-.11-.03-.21-.04-.32-.02-.17-.06-.32-.18-.44-.11-.11-.29-.19-.44-.18-.31.01-.66.28-.62.62h0Z"/>
      <path class="cls-5" d="M5,4.1c2.04,1.94,4.08,3.87,6.12,5.81,1.68,1.59,3.4,3.7,5.56,4.64l.15-1.14c-1.97.62-4.97,2.57-5.02,4.89-.03,1.37.54,2.93,1.08,4.17.37.84.88,1.6,1.22,2.46.32.79.55,1.62.8,2.44l1.14-.48c-.57-1.22-1-2.42-1.33-3.73-.3-1.17-.97-2.11-1.37-3.24-.27-.75-1.48-.43-1.21.33.45,1.26,1.15,2.32,1.47,3.64s.8,2.44,1.36,3.63c.3.65,1.34.19,1.14-.48-.32-1.07-.64-2.14-1.1-3.16-.57-1.25-1.19-2.37-1.59-3.7-.18-.61-.43-1.32-.34-1.96.1-.7.67-1.28,1.16-1.78.82-.84,1.8-1.47,2.92-1.83.46-.14.68-.91.15-1.14-2.18-.94-3.93-3.13-5.63-4.75-1.93-1.83-3.87-3.67-5.8-5.5-.58-.55-1.47.33-.88.88h0Z"/>
      <path class="cls-5" d="M16.57,26.88c-.75-2.69-1.82-5.17-2.97-7.7-.3-.65-.43-1.32-.66-1.99-.21-.61-.55-1.14-.86-1.7-.72-1.32-1.22-2.73-1.58-4.18l-1.14.48c1.22,2.87,2.25,5.81,3.11,8.81l.29-.71-.13.08h.63c-.49-.27-.72-1.83-.86-2.34-.23-.84-.51-1.65-.81-2.46-.64-1.71-1.3-3.42-1.95-5.12-.28-.74-1.46-.45-1.21.33.98,3.03,2.05,6.03,3.1,9.03.27.77,1.33.45,1.21-.33-.38-2.48-.75-5.16-2.12-7.32-.34-.53-.78-.99-1.12-1.52-.43-.67-.67-1.45-.98-2.18-.54-1.3-1.17-2.55-1.88-3.76l-1.08.63c1.45,1.92,2.25,4.29,3.12,6.51.68,1.73,1.28,4.22,2.75,5.46.56.47,1.27-.11.98-.76-1.28-2.91-2.39-5.89-3.36-8.92-.25-.79-1.31-.44-1.21.33.11.83.7,1.42,1.16,2.09.53.79,1.01,1.61,1.42,2.47.77,1.62,1.33,3.32,2.17,4.91l.98-.76c-1.5-1.59-2.28-3.85-3.05-5.85-.52-1.34-.89-3.29-2.3-4.01-.51-.26-1.25.31-.86.86,1.31,1.8,2.73,3.61,4.4,5.09.74.66,1.52,1.27,2.27,1.91.59.51,1.24.62,1.99.49.62-.11.57-1.06,0-1.21-1.23-.32-2.36-1.43-3.35-2.2-.9-.69-1.18-1.69-1.93-2.5l-.76.98c1.26.9,2.9,2.15,3.58,3.59.16.33.34.94.21,1.33-.25.73-.69.13-.98-.26-.51-.7-.75-1.77-.97-2.58l-.77.77c1.03.42,1.54,1.99,2.31,2.76l.61-1.04c-.7-.12-1.31-.26-1.59-.98l-.77.77c1,.24,1.5,1.2,2.59,1.27.5.03.74-.55.54-.94-.35-.7-.77-1.27-1.38-1.75l-.61,1.04c.31.06.57.22.77.47.58.56,1.46-.32.88-.88-.39-.38-.79-.64-1.32-.79-.56-.16-1.12.65-.61,1.04s.89.9,1.19,1.5l.54-.94c-.82-.05-1.43-1.03-2.26-1.23-.42-.1-.95.3-.77.77.45,1.15,1.27,1.65,2.47,1.86.58.1,1.08-.57.61-1.04-1.02-1.02-1.45-2.5-2.86-3.08-.46-.19-.89.35-.77.77.35,1.25.82,3.09,1.91,3.91.9.67,1.95.29,2.35-.73,1.06-2.74-2.38-5.32-4.27-6.66-.6-.43-1.22.48-.76.98s.66,1.15,1.07,1.69c.31.41.71.7,1.12,1.01,1.12.85,2.26,1.96,3.65,2.32v-1.21c-.8.14-1.34-.82-1.91-1.24-.71-.53-1.38-1.05-2-1.68-1.21-1.24-2.32-2.58-3.33-3.99l-.86.86c.86.44,1.11,1.61,1.41,2.44s.66,1.72,1.02,2.58c.7,1.65,1.42,3.32,2.66,4.64.5.53,1.31-.14.98-.76-.78-1.47-1.32-3.05-2.01-4.57-.33-.73-.71-1.45-1.14-2.13-.47-.76-1.35-1.59-1.47-2.48l-1.21.33c1,3.13,2.16,6.21,3.48,9.22l.98-.76c-.82-.69-1.2-1.87-1.6-2.84-.44-1.06-.85-2.14-1.27-3.21-.77-1.95-1.53-3.99-2.8-5.67-.47-.62-1.5-.08-1.08.63.73,1.24,1.37,2.52,1.92,3.84.5,1.22,1.03,2.18,1.81,3.25,1.53,2.1,1.87,4.89,2.25,7.39l1.21-.33c-1.05-3-2.12-6-3.1-9.03l-1.21.33c.79,2.09,1.65,4.16,2.36,6.27.41,1.2.58,3.73,1.83,4.4.19.1.44.12.63,0l.13-.08c.23-.15.37-.43.29-.71-.89-3.1-1.97-6.14-3.24-9.11-.28-.67-1.31-.18-1.14.48.33,1.31.77,2.59,1.37,3.81.28.57.65,1.1.91,1.67.31.67.41,1.4.68,2.08.52,1.29,1.21,2.52,1.72,3.81.54,1.37,1,2.77,1.39,4.19.22.77,1.42.45,1.21-.33h0Z"/>
      <path class="cls-5" d="M5.22,4.07c0,.1.01.2.03.29,0,.05.02.09.04.13.04.09.07.18.12.26s.11.15.17.23c.12.14.27.24.38.38l-.1-.13s.06.09.08.14c.07.13.23.25.37.29.15.04.35.02.48-.06s.25-.21.29-.37l.02-.17c0-.11-.03-.22-.09-.32-.08-.16-.2-.3-.33-.42-.09-.08-.18-.16-.26-.26l.1.13c-.04-.06-.08-.11-.11-.18l.06.15c-.02-.05-.04-.11-.05-.16l.02.17s0-.06,0-.1c0-.16-.07-.33-.18-.44s-.29-.19-.44-.18-.33.06-.44.18-.18.27-.18.44h0Z"/>
      <path class="cls-2" d="M6.18,22.83c-.14-6.41-.29-12.83-.43-19.24-.02-.8-1.27-.81-1.25,0,.14,6.41.29,12.83.43,19.24.02.8,1.27.81,1.25,0h0Z"/>
      <path class="cls-2" d="M5.91,23.66c.3-.04.55-.24.77-.43.09-.08.18-.17.27-.24-.08.06.07-.03.08-.04-.08.05.07.02-.05.02l-.32-1.16c-.26.16-.53.32-.79.49-.68.42-.07,1.49.63,1.08,1.63-.95,3.25-1.89,4.88-2.84.69-.4.07-1.49-.63-1.08-1.63.95-3.25,1.89-4.88,2.84l.63,1.08c.26-.16.53-.32.79-.49.52-.32.32-1.17-.32-1.16-.37,0-.66.18-.94.41-.1.08-.19.18-.3.26-.03.03-.03.03,0,0-.02.02-.05.03-.08.05-.04.02-.03.02.02,0-.04.01-.07.02-.11.02-.33.05-.52.47-.44.77.1.36.43.49.77.44h0Z"/>
      <path class="cls-2" d="M11.04,20.41c.23.2.33.56.48.82.17.31.36.62.55.92.37.62.61,1.21.79,1.9s.62,1.2.78,1.85c.1.39.16.75.33,1.12.18.4.36.79.55,1.18.3.65,1.34.19,1.14-.48-.11-.37-.22-.73-.38-1.08-.15-.32-.34-.6-.46-.93-.26-.73-.65-1.41-.95-2.13-.31-.75-.63-1.51-.91-2.27-.25-.7-.46-1.45-.9-2.07-.46-.65-1.55-.03-1.08.63.42.59.6,1.31.85,1.99.27.74.58,1.46.88,2.18.28.67.64,1.32.89,2s.64,1.29.85,2.01l1.14-.48c-.18-.39-.39-.78-.55-1.18-.14-.35-.16-.73-.28-1.08s-.3-.65-.47-.97c-.17-.34-.24-.7-.34-1.06-.2-.71-.57-1.36-.95-1.99-.19-.31-.37-.61-.54-.93-.15-.3-.28-.61-.55-.84-.61-.52-1.5.36-.88.88h0Z"/>
      <path class="cls-4" d="M4.91,3.5c2.32,2.08,4.6,4.2,7.11,6.05,1.27.93,2.56,1.85,3.73,2.9.45.41.86.89,1.32,1.28.35.29.98.49,1.17.91l.1-.76c-1.04,1.1-2.36,1.81-3.63,2.6-.84.52-1.86,1-1.84,2.13.03,1.29,1.01,2.68,1.52,3.83.65,1.46.94,3.15,1.75,4.52.41.69,1.49.07,1.08-.63-.64-1.09-.87-2.44-1.36-3.61-.45-1.09-1.3-2.3-1.54-3.45-.29-1.39,1.41-1.93,2.41-2.56.9-.56,1.77-1.17,2.5-1.95.21-.22.21-.49.1-.76-.17-.38-.52-.62-.86-.85-.52-.36-.92-.73-1.38-1.17-1.07-1.03-2.26-1.93-3.46-2.81-2.76-2.03-5.28-4.28-7.84-6.57-.6-.54-1.48.35-.88.88h0Z"/>
      <path class="cls-4" d="M18.54,13.91s0-.03,0-.04l-.02.17s.01-.07.03-.1l-.06.15s.02-.05.04-.07l-.1.13h.01c-.36-.16-.71-.31-1.07-.46,0,.1,0,.21,0,.31,0,.25.16.48.38.57s.51.05.68-.13c.39-.4.31-1.06-.07-1.44-.13-.13-.29-.24-.45-.32-.11-.06-.23-.11-.34-.15-.07-.02-.14-.02-.21-.05l.15.06s-.03-.02-.04-.03l.13.1s-.05-.05-.07-.07l.1.13c-.09-.11-.15-.23-.25-.34-.15-.18-.37-.27-.59-.28-.16,0-.33.07-.44.18s-.19.29-.18.44c.02.35.27.62.62.62,0,0,.02,0,.02,0l-.17-.02s.02,0,.03.01l-.15-.06s.02.01.03.02l-.13-.1s.05.04.07.07l-.1-.13c.1.13.17.27.28.38s.25.19.4.23c.08.02.16.03.24.06l-.15-.06c.13.06.25.13.37.22l-.13-.1s.08.07.11.11l-.1-.13s.04.07.06.11l-.06-.15s.02.07.03.1l-.02-.17s0,.09,0,.13l.02-.17s-.01.06-.02.08l.06-.15s-.02.04-.03.06l.1-.13s-.01.02-.02.02l1.07.44c0-.1,0-.21,0-.31,0-.25-.16-.48-.38-.57-.11-.04-.21-.06-.32-.04-.13.02-.27.07-.36.17-.17.19-.26.41-.27.67,0,.16.07.33.18.44s.29.19.44.18c.35-.02.61-.27.62-.62h0Z"/>
    </g>
  </g>
</svg>