<?xml version="1.0" encoding="UTF-8"?>
<svg id="Ebene_1" xmlns="http://www.w3.org/2000/svg" version="1.1" viewBox="0 0 32 32">
  <!-- Generator: Adobe Illustrator 29.1.0, SVG Export Plug-In . SVG Version: 2.1.0 Build 142)  -->
  <defs>
    <style>
      .st0 {
        fill: #d6eefd;
      }

      .st1 {
        fill: #009fe3;
      }

      .st2 {
        fill: #63a8dd;
      }

      .st3 {
        fill: #471b67;
      }

      .st4 {
        fill: #1d1d1b;
      }

      .st5 {
        opacity: .6;
      }

      .st6 {
        fill: #71abde;
      }
    </style>
  </defs>
  <g id="Ebene_11" data-name="Ebene_1">
    <path class="st4" d="M11.2,15.7V4.8c0-.3,0-.7,0-1,.4,0,.4-.3,0-.5,0,.3,0,.6,0,.9,0,1.1.1,2.2.1,3.3,0,2.3,0,4.5.1,6.8.1,1.6,2.6,1.6,2.5,0,0-.8,0-1.6-.1-2.3,0-.9,0-.5.8-.7h.3c-.4-.5-.6-.6-.5-.1-.1.2,0,.8,0,1.1,0,.9,0,1.7,0,2.6h2.5v-2.2c0-.6-.2-1.4,0-2l-.6.8c.8-.5.7.8.7,1.1,0,.8,0,1.5,0,2.3h2.5c0-.6,0-1.2,0-1.8,0-.2-.1-1.2,0-1.3.7-.6,1,1.2,1.1,1.6.1,2.2,0,4.4,0,6.5,0,1.6-.2,3.8-1.8,4.8-1,.7-2.8.5-4,.3-1.6-.3-2.2,2.1-.7,2.4,2.3.4,5.1.4,6.8-1.3,2.3-2.2,2.1-5.5,2.1-8.5,0-2.6.8-6.8-2.1-8.2-1.1-.6-2.6-.3-3.4.8-.9,1.2-.6,3.3-.6,4.7,0,1.6,2.5,1.6,2.5,0,0-2.4.6-5.7-2.7-5.9-1,0-2.1.3-2.4,1.4-.3,1.4,0,3.2,0,4.6,0,1.6,2.5,1.6,2.5,0,0-1.4.2-3.1-.1-4.4-.3-1.2-1.4-1.6-2.5-1.5-1.1,0-2.2.4-2.7,1.4-.6,1.2-.2,2.9-.2,4.2h2.5c-.2-3.1,0-6.2-.2-9.4,0-1.1,0-2.6-.8-3.4-.9-.9-2.2-.5-3.1.1-1.9,1.3-1.3,4.2-1.3,6.2v7.8c0,1.6,2.5,1.6,2.5,0h0Z"/>
    <path class="st4" d="M9,14c0,.3,0,.6,0,.9,0,.2-.2.6-.1.8,0,0-.1.1,0,0,0,0,.1,0,.1,0,0,0-.3-.4-.4-.4-.7-.9-1.5-1.5-2.7-1.9s-2.4-.5-3.4.4c-.9.8-1.2,2.1-.6,3.1.3.5.8.9,1.3,1.2.4.2.9.4,1.3.7.8.7,1.2,1.8,1.8,2.6.7,1,1.6,1.9,2.1,3,.2.5.4,1,.8,1.5.4.5,1.1.8,1.6,1,.6.3,1.2.6,1.9.7.6.1,1.2.1,1.8.1,1,0,2.2.2,3-.5,1.2-1.1-.6-2.9-1.8-1.8h.2c.2-.2.2-.2,0-.1,0,0,.2,0,0,0s-.4,0-.6,0c-.4,0-.7,0-1.1,0-1,0-1.7-.2-2.6-.6-.4-.2-.7-.3-.9-.7-.3-.5-.5-1.1-.8-1.6-.3-.4-.6-.9-.9-1.3s-.7-.8-1-1.2c-.6-.9-1.1-1.9-1.9-2.7-.7-.6-1.5-1-2.3-1.4,0,0,0,0,0,.1,0,0,0-.1.1-.1.3,0,.6,0,.9.1.4.1.8.3,1.1.5.3.3.6.7.9,1,.8.9,2.2,1.2,3.3.5,1.2-.8,1.2-2.5,1.2-3.8s-2.5-1.6-2.5,0h0Z"/>
    <path class="st1" d="M3.1,16.4c.8.5,1.6,1,2.4,1.5.8.6,1.3,1.4,1.8,2.3.4.8.9,1.5,1.3,2.3.3.7,1,1.1,1.3,1.8l.9-.9-.2-.2-1.2.3c.7,2.3,3.1,2.8,5.2,2.8,2.2,0,4.8-.6,5.8-2.8.3-.7-.8-1.4-1.1-.6-.8,1.8-2.7,2.2-4.4,2.2-1.6,0-3.8-.1-4.3-1.9-.2-.8-1.4-.5-1.2.3.1.5.3.8.8,1,.6.3,1.1-.3.9-.9-.2-.4-.4-.6-.7-.9-.4-.4-.6-.7-.8-1.2-.4-.9-1-1.7-1.5-2.5-1-1.8-2.7-2.7-4.4-3.8-.7-.4-1.3.6-.6,1.1h0Z"/>
    <path class="st2" d="M14.7,15.8v-2.4c0,0-.1-1.1-.1-1.1,0,0,0-.4,0-.4h0c0,0,0,0,0,0,0,0,0,0,0,0l-.5-.6c.1.8.4,1.5.4,2.3,0,.8.1,1.7.1,2.5,0,.3.3.6.6.6s.6-.3.6-.6c0-.8-.1-1.7-.1-2.5,0-.4,0-.8-.1-1.2,0-.4-.2-.7-.3-1.1,0-.3-.2-.5-.5-.6-.5-.1-1,0-1.3.5s-.2,1-.1,1.5v3c.1.3.4.6.7.6s.6-.3.6-.6h0Z"/>
    <path class="st1" d="M17.5,15.6v-2.4c0-.4,0-.8,0-1.2s0-.2,0-.3c0-.3.2-.4.1-.7-.1-.4-.7-.7-1-.3,0,.1-.2.2-.3.3l1,.6c0,0,0,0,0,0,0,.1-.2.2-.4.1l-.3-.2s0,0,0,0c0,.1,0,.2,0,.3,0,.1,0,.3,0,.4,0,.4,0,.8,0,1.2,0,.9,0,1.8,0,2.6,0,.3.3.6.6.6s.6-.3.6-.6c0-1.2.1-2.5,0-3.7,0-.6,0-1.2-.4-1.7-.2-.3-.6-.4-.9-.3s-.6.4-.7.8c-.2.6.6,1.1,1,.6,0-.1.2-.2.3-.3l-1-.3h0c0,0,0-.3,0-.3,0,.1-.1.3-.2.5,0,.2,0,.4,0,.6,0,.4,0,.8,0,1.1v2.3c0,.8,1.3.8,1.3,0h0Z"/>
    <path class="st2" d="M19.8,15.6c.4-1.1.1-2.2.4-3.3,0-.2.2-.3,0-.2-.2,0-.1,0,0,.3,0,.2,0,.5,0,.7,0,.7,0,1.4-.1,2-.1,1.3-.2,2.6-.3,3.9,0,.7-.1,1.4-.2,2,0,.3,0,.6-.1.9,0,.2,0,.4,0,.6,0,.2-.1.4,0,.2h.9,0s0,.8,0,.8h0c.6-.6-.3-1.5-.9-.9h0c-.2.3-.2.7,0,.9h0c.2.3.6.2.9,0s.2-.5.3-.8c0-.5.1-.9.2-1.4.1-.9.2-1.8.3-2.7.2-1.8.3-3.6.4-5.3,0-.6.1-1.4-.2-1.9-.3-.6-1-.9-1.6-.5s-.6,1.3-.6,2c0,.8,0,1.5-.2,2.3s.9,1.1,1.2.3h0Z"/>
    <path class="st2" d="M16.1,11.7c0,.9.1,1.7.3,2.6,0,.3.5.5.8.4.3-.1.5-.4.4-.8,0-.2,0-.4-.1-.6,0,0,0-.2,0-.3,0-.1,0,.1,0,0,0,0,0-.1,0-.2,0-.4,0-.8,0-1.2,0-.3-.3-.6-.6-.6-.3,0-.6.3-.6.6h0Z"/>
    <path class="st6" d="M21.1,12.3v-.5s-.3.5-.3.5c-.4-.2-.5-.1-.5.2v.3c0,.2,0,.5,0,.7,0,.4,0,.8,0,1.3,0,.9,0,1.8,0,2.7,0,1.8-.3,3.5-.9,5.2-.3.8.9,1.1,1.2.3.8-2.2,1-4.5,1-6.8,0-1.1,0-2.3,0-3.4,0-.5,0-1-.2-1.4-.3-.3-.8-.4-1.1-.2-.2.1-.3.3-.3.5v.5c0,.8,1.3.8,1.3,0h0Z"/>
    <path class="st1" d="M18.6,25.5c1-.3,1.7-1.1,2-2.1.2-.5-.5-1-.9-.7-.3.2-.5.4-.6.7-.1.3,0,.5.1.8.7.9,1.6-.3,1.9-.9.4-1,.5-2.1.5-3.1.2-2.5,0-4.9-.3-7.4,0-.8-1.4-.8-1.2,0,.2,1.9.4,3.8.4,5.6,0,.9,0,1.9-.2,2.8,0,.7-.1,1.7-.7,2.2h.5c0,0,0,0,0,0v.8c.1-.1.2-.2.3-.2l-.9-.7c-.2.6-.6,1-1.1,1.2-.8.2-.4,1.5.3,1.2h0Z"/>
    <path class="st2" d="M3.7,16.4c.8-.3,2,.2,2.6.9s1.1,1,1.9,1c.6,0,1.6.1,2.1-.3.6-.5.8-1.7.9-2.4.4-1.8.5-3.7.4-5.6,0-1,0-2-.1-3,0-.9-.2-2.3.2-3.2h-1c.4.5.1,1.6.1,2.1,0,.7,0,1.4,0,2.2,0,1.6.1,3.1.2,4.7,0,1,0,2.6,1.1,3,.9.3,2.1.3,2.8-.4.4-.5-.1-1.4-.8-1-.6.3-1,.8-1.3,1.4-.3.7.7,1.4,1.1.6.2-.4.4-.7.8-.9l-.8-1c-.3.3-.8.3-1.2.2-.6-.2-.5-1-.5-1.5,0-1.2-.1-2.5-.1-3.7s0-2.4,0-3.7c0-.9.2-2-.5-2.7-.3-.2-.8-.2-1,.1-.4.8-.4,1.6-.4,2.4s0,1.8,0,2.7c0,1.9.1,3.8-.1,5.6-.1.8-.3,1.8-.6,2.6-.2.5-.5.5-1,.5-.4,0-.8-.1-1.2-.4-.6-.5-.9-.9-1.7-1.2-.8-.3-1.6-.5-2.4-.3-.8.2-.4,1.5.3,1.2h0Z"/>
    <path class="st2" d="M6.9,18.3c1.2,1.3,3.7,1.3,4.3-.6.1-.4.1-.9.2-1.3,0-.2.1-.5.1-.7.2-.2,0-.4-.4-.4v.4c0,.7-.3,2.3.7,2.5.3,0,.7-.1.8-.4.1-.4,0-.8.1-1.2h0c.1-.4,0-.5-.4-.4,0,0,.2.6.2.7.1.4.2.8.5,1,.3.2.7.2.9,0,.2-.1.4-.4.4-.6,0-.4,0-.8.2-1s0-.1.2,0c.2,0,.3.2.5.2.4.1.9.1,1.3,0,.8,0,1.8-.4,2.5-.1h0c-.1,0-.2,0-.3,0-.2,0-.4,0-.6,0-.6,0-1.1,0-1.7-.1-.9,0-1.8-.1-2.6-.2-.6,0-1.5.3-1.1,1.1.3.6,1.4.7,2,.8.9,0,1.7,0,2.6-.3.4-.1.8-.3,1.2-.4,0,0,.8,0,.5-.3,0,0-.6,0-.6,0-1,0-1.9,0-2.9,0-1.9.1-3.8.5-5.7.8-.7.1-1.7.1-2.2.7-.3.4-.5,1.3-.1,1.8.5.8,1.8.5,2.5.5,1,0,2-.3,3-.5,1.1-.2,2.1-.6,3.2-.8.5-.1,1.1-.3,1.6-.3.2,0,.5,0,.7,0,.1,0,.3,0,.4,0,.3,0,.3,0,0-.2l.6-.8c-2-.1-3.9-.1-5.9,0-1.8,0-3.7.1-5.5.7-.3.1-.5.4-.4.8.2.8,1,.9,1.7.8,1,0,2-.3,3-.6.6-.2.6-1.3-.2-1.2-.8,0-1.6.4-2.4.7-.7.3-1.4.6-1.7,1.4-.7,1.5.4,2.9,1.5,3.8.4.4,1,.1,1.1-.4,0-1-.4-1.9-.3-2.8,0-.4.1-.8,0-1.1-.2-.3-.6-.5-1-.4-.8.3-.5,1.5-.3,2.1.2.9.5,1.9,1,2.7.4.7.8,1.5,1.6,1.8.9.3,1.9.4,2.8.3s1.9-.2,2.8-.5c.8-.3,1.6-.6,2-1.3.5-.8.9-1.8,1-2.8,0-1.1-.1-2.3-.2-3.5,0-.8-1.3-.8-1.2,0,.1,1.4.5,3.1,0,4.5-.2.6-.5,1.3-1,1.6-.6.3-1.4.5-2.1.7s-1.4.2-2.1.1-1.5,0-1.9-.7-.7-1.3-.9-2c-.1-.3-.2-.6-.3-.9,0-.1-.2-1-.2-1l-.6.2h.1s-.4-.2-.4-.2c0,0,0,.5,0,.6,0,.3,0,.6,0,.9.1.6.3,1.2.2,1.9l1.1-.4c-.6-.5-1.7-1.5-1.2-2.5.2-.4.8-.6,1.2-.8.6-.2,1.1-.5,1.7-.5l-.2-1.2c-.6.2-1.2.3-1.8.4-.3,0-.7,0-1,.1-.1,0-.2,0-.4,0-.2,0-.2,0,0,0l-.4.8c1.7-.6,3.6-.6,5.4-.6s3.7,0,5.6,0c.4,0,.7-.4.6-.8-.2-1-1.6-.7-2.3-.6-1.1.1-2.2.4-3.2.7-1.1.3-2.3.6-3.5.8-.6,0-1.1.1-1.7.2-.3,0-.6,0-.8,0-.2,0,0,0,0,0,0,0,0-.2,0-.2.1-.1.7-.1.9-.2.3,0,.6-.1.8-.2.6-.1,1.2-.2,1.8-.3,1.2-.2,2.4-.4,3.7-.4.6,0,1.1,0,1.7,0s1.1.1,1.6,0c.8-.1,1.5-.9,1.1-1.6-.5-1.1-2-.6-2.8-.3-.6.2-1.1.4-1.8.4-.3,0-.7,0-1,0-.1,0-.2,0-.4,0,0,0-.5-.2-.4,0v.5c-.3.2-.3.3,0,.3h.5c.3,0,.6,0,.9,0,.6,0,1.1,0,1.7.1.8,0,2.1.4,2.9-.2.7-.5.5-1.6-.2-2-.9-.6-2.1-.1-3.1,0-.5,0-.9,0-1.4-.2-.4-.2-.7-.3-1.1,0-.4.2-.8.6-.9,1,0,.2-.1.3-.1.5,0,.1,0,.2,0,.4,0,.3.2.4.7,0,0-.1-.2-.8-.3-.9,0-.1-.1-.3-.2-.4-.3-.3-.7-.4-1.1-.2-.9.4-.6,1.4-.8,2.2l.8-.4c.2.3.3.3.2,0v-1.2c0-.4,0-.9-.3-1.2-.6-.6-1.4,0-1.7.6-.3.7-.1,1.6-.5,2.3-.4.9-1.6.5-2.2,0s-1.4.3-.9.9h0Z"/>
    <path class="st4" d="M16.5,14.5c-.1-.6-.2-1.1-.2-1.8s0-1.2.1-1.8c0-.3,0-.7-.4-.8-.3,0-.7,0-.8.4-.1.7-.2,1.4-.1,2.1s.1,1.4.3,2.1c0,.3.5.5.8.4.4-.1.5-.4.4-.8h0Z"/>
    <path class="st4" d="M19.2,14.9c0-1.2,0-2.5,0-3.8,0-.3-.3-.6-.6-.6s-.6.3-.6.6c0,1.2,0,2.5,0,3.8,0,.3.3.6.6.6s.6-.3.6-.6h0Z"/>
    <path class="st4" d="M13.6,14.6v-4.1c0-.3-.3-.6-.6-.6s-.6.3-.6.6v4.1c0,.3.3.6.6.6s.6-.3.6-.6h0Z"/>
    <path class="st1" d="M20.8,11.7s0,0,0,0h-.1c0,.1,0,0,0,0h-.1c0,.1,0,0,0,0h-.1c0,0,0,0,0,0h-.2s0,0,0,0h-.2s0,0,0,0h-.1c0,0,0,0,0,0h-.1c0-.1,0,0,0,0h-.1c0-.1,0-.1,0,0h0c0-.1,0-.1,0,0v-.2s0,0,0,.1v-.2c0,.1,0,.3,0,.4,0,.1,0,.3-.1.4,0,.2,0,.3,0,.5,0,.1.2.2.4.3.2,0,.3,0,.5,0s.2-.2.3-.4c0-.2,0-.4.1-.5,0-.2.1-.4.1-.6,0-.1,0-.3-.1-.4-.1-.2-.3-.3-.5-.3s-.4,0-.6.1c-.1.1-.2.2-.3.4s-.1.3,0,.5c0,.1.1.3.3.4.1,0,.3.1.5,0s.3-.1.4-.3h0Z"/>
    <path class="st2" d="M10.4,20.1c-.2,1.1-.3,2.2.1,3.2.3.8,1.1,1.9,2.1,1.6,1.4-.3.2-2-.2-2.6-.3-.4-.6-.8-.7-1.3,0-.2,0-.4.1-.5,0,0,.2-.2.2-.2l-.2-.2c0,0,0,0,0,.1,0,0,0,.2,0,.3,0,.1,0,.3,0,.4,0,.3-.1.7-.2,1-.1.6-.2,1.2,0,1.9.2,1,1.4,2.1,2.4,1.5.5-.3.7-1,.4-1.5-.3-.6-.8-1-1.3-1.4-.2-.2-.4-.4-.6-.6-.2-.1-.4-.3-.5-.5,0-.2.1-.4.2-.5,0,0,.2-.1.3-.1,0,0,.1,0,.2,0,.1,0,.1,0,0,0l-.2-.2c.9,1.2-.1,2.7.4,4,.3.6.8,1,1.5,1s1.3-.6,1.1-1.3c-.1-.3-.4-.5-.6-.8-.3-.3-.6-.6-.9-.9-.3-.3-.5-.5-.8-.8s-.4-.4-.3-.7c.1-.4.7-.6.8,0,0,.3,0,.6-.1.9,0,.3-.2.7-.2,1-.1,1.1.6,3,2,2.5,1.6-.6,0-2.8-.5-3.5-.3-.3-.8-.9-.6-1.4,0,0,.1-.2.1-.2h0-.2c0,0,0,0,0,0,0,0,.2.5.2.5,0,.2.1.4.1.6.1.7.2,1.4.1,2.1,0,.7,0,1.4.6,1.8.6.5,1.5.3,1.9-.3.5-.7.1-1.6-.2-2.3-.3-.6-.9-1.2-.8-1.9s.5-1.3.3-2.1c-.2-.6-1-.6-1.2,0-.3.9-.3,1.8-.1,2.8s.4,1.8.9,2.5c.1.2,0,.2.3.2.3-.1.2-.2.2-.5,0-.5.1-.9.2-1.4s.1-1,.2-1.5c0-.4.1-.8.4-1.1l-1-.3c.4,1.8-.3,3.7.4,5.5.2.5.9.6,1.1.1,1-1.6.7-3.5.2-5.3,0-.2-.1-.4-.2-.7,0,0,0-.3,0-.3,0,0-.1,0-.1,0,0,0,0,.1,0,.1,0,0,0,.2,0,.2,0,.2,0,.5,0,.7,0,.9,0,1.9-.1,2.8l.2-.3h0s.4-.1.4-.1h0c.1,0,.2,0,.3,0-.4-.3-.5-1.2-.5-1.7,0-.8.1-1.5,0-2.3l-1.1.4c.2.2.3.5.3.8s.3.6.6.6.6-.3.6-.6c0-.6-.2-1.2-.6-1.7-.4-.4-1.1-.1-1.1.4,0,1.3-.3,2.6.2,3.9.2.5.6,1.3,1.2,1.3.8,0,.8-1.1.8-1.6,0-.7,0-1.5,0-2.2,0-.6,0-1.4-.6-1.8s-1.2-.4-1.7,0c-.5.6-.3,1.4-.1,2,.4,1.4.7,3-.1,4.4h1.1c-.6-1.6,0-3.5-.4-5.3,0-.5-.7-.6-1-.3-.8.9-.9,2.4-1,3.5,0,.6-.3,1.3-.2,1.9.1.5.6,1,1.1,1s1-.5,1-1.1-.5-1-.7-1.5c-.4-1.1-.7-2.5-.3-3.7h-1.2c.1.4-.1.8-.2,1.2-.2.6-.2,1.1,0,1.7.2.5.6.9.8,1.4,0,.1.5,1.1,0,.9-.2-.1,0-1,0-1.2,0-.6,0-1.3-.2-1.9-.1-.5-.2-1.1-.5-1.6-.3-.5-.9-.6-1.5-.4-.9.4-1,1.6-.6,2.4.2.5.6.8.9,1.3.2.2.3.5.4.7,0,.1.1.2.2.4,0,0,.1.4.1.4h.1c0-.1,0-.1,0-.1,0,0-.1-.1-.1-.1-.1-.2-.2-.4-.2-.6,0-.5.1-1,.2-1.6.2-1,0-2.4-1.2-2.5-1.2-.1-2.3,1-1.9,2.2.2.6.7,1.1,1.1,1.5.2.3.5.5.8.8l.3.3.2.2c.1.2.1.1,0,0l.2-.3c-.2.2-.4-.1-.4-.3-.1-.4,0-.9,0-1.3.1-.9,0-1.9-.5-2.6-.5-.8-1.7-.3-2.2.2-.6.6-.8,1.6-.3,2.3s1.3,1.3,2,1.9c0,0,.2.3.2.3v-.2c.1,0,0,0,0,0,0,0-.1,0-.1,0-.3-.2-.4-.5-.4-.8,0-.5,0-.9.1-1.4,0-.5.2-1,.2-1.4,0-.4,0-.8-.2-1.1-.3-.3-.9-.3-1.3-.1-.9.4-1.2,1.5-1,2.4.1.5.4.9.7,1.4.1.2.3.4.4.6,0,0,0,.1.1.2,0,0,0,.1.1.2,0,.1,0,.2,0,0l.2-.3h0c0,0,.3-.1.3-.1,0,0,0,0-.2-.1-.1,0-.2-.2-.3-.3-.2-.2-.3-.5-.3-.7-.2-.7,0-1.5,0-2.2,0-.3,0-.7-.4-.8-.3,0-.7.1-.8.4h0Z"/>
    <path class="st0" d="M20.1,11.5c.3,1.9.4,3.9.4,5.9,0,1,0,1.9-.1,2.9,0,.8,0,2.1-.5,2.8-.5.6.4,1.5.9.9.6-.8.7-1.6.8-2.5.1-1.1.2-2.2.2-3.4,0-2.2,0-4.4-.4-6.6-.1-.8-1.4-.8-1.2,0h0Z"/>
    <path class="st0" d="M16.7,11.2c.2,1.1.3,2.4.2,3.6,0,.3.3.6.6.6.4,0,.6-.3.6-.6,0-1.3,0-2.7-.3-4,0-.3-.5-.5-.8-.4-.4.1-.5.4-.4.8h0Z"/>
    <path class="st0" d="M14.1,11.2c0,.3,0,.7,0,1,0,.2,0,.3.1.5s0,.2,0,.4c0,.6,0,1.3,0,1.9s.3.6.6.6.6-.3.6-.6c0-.6,0-1.3,0-1.9,0-.3-.1-.7-.2-1,0,0,0-.2,0-.2,0-.1,0,0,0-.1,0-.2,0-.3,0-.5,0-.3-.3-.6-.6-.6-.4,0-.6.3-.6.6h0Z"/>
    <path class="st0" d="M10.9,3.3c.1,1.9.3,3.7.4,5.6.1,1.9,0,3.8-.2,5.6,0,.8,1.2.8,1.2,0,.2-1.9.3-3.8.2-5.6s-.3-3.7-.4-5.6c0-.8-1.3-.8-1.2,0h0Z"/>
    <path class="st6" d="M7,18.9c.7.3,1.6.5,2.3.2.4-.1.7-.4,1-.7.2-.2.4-.6.7-.8.7-.5,0-1.4-.6-1.1-.5.2-.9.8-1.4,1-.4.2-1,.2-1.4,0-.6-.2-.9-.7-1.5-.9,0,0-.2,0-.3,0-.1,0-.2-.2-.3-.3-.3-.3-.7-.4-1.1-.3-.8.2-.5,1.4.3,1.2-.1,0-.2,0,0,0,0,0,.1.1.2.2.1.1.2.2.4.3.3.1.6.2.8.3.5.4,1,.7,1.6.8s1.3,0,1.9-.2.9-.8,1.5-1l-.6-1.1c-.3.2-.5.4-.8.7-.2.2-.3.5-.6.6-.5.3-1.2,0-1.7-.2-.3-.1-.7.1-.8.4,0,.4.1.6.4.8h0Z"/>
    <g class="st5">
      <path class="st3" d="M2.6,16.2c.5.8,1.4.9,2.1,1.4.9.5,1.6,1.2,2.2,2.1s.9,1.8,1.5,2.6c.3.4.3.9.6,1.3s.5.6.9.9.5.7.9,1c.3.2.7.4,1.1.5,1,.3,2.2.5,3.3.5,1,0,2.1-.4,3.1-.7.8-.3,1.9-.5,2.3-1.3.4-.7-.7-1.4-1.1-.6s-.9.5-1.3.6c-.4.1-.8.3-1.3.4-1.1.3-2,.4-3.1.2-.8-.1-1.9-.1-2.4-.8-.2-.2-.4-.5-.6-.8-.4-.4-.6-.6-.8-1.1-.3-.7-.8-1.3-1.1-2-.4-.7-.7-1.4-1.2-2s-1-1.1-1.7-1.6c-.3-.2-.7-.5-1.1-.6-.3-.2-.9-.3-1.1-.6-.4-.7-1.5,0-1.1.6h0Z"/>
    </g>
    <path class="st0" d="M3.4,16.3c.4-.2.9-.2,1.4-.2.2,0,.5,0,.6.1,0,0,.2.2.2.2,0,.1.2.2.3.3.5.4.9.7,1.4,1.1.2.2.4.3.7.4.3,0,.6,0,.9,0,.8,0,.8-1.3,0-1.2-.2,0-.4,0-.7,0-.2-.1-.5-.3-.7-.5-.2-.2-.5-.4-.7-.6-.2-.2-.4-.4-.6-.5-.4-.4-1.1-.5-1.6-.5-.6,0-1.2.1-1.8.4-.3.1-.4.6-.2.9.2.3.5.4.9.2h0Z"/>
  </g>
</svg>